<mxfile host="Electron" modified="2024-07-07T13:56:09.601Z" agent="Mozilla/5.0 (Windows NT 10.0; Win64; x64) AppleWebKit/537.36 (KHTML, like Gecko) draw.io/24.5.3 Chrome/124.0.6367.207 Electron/30.0.6 Safari/537.36" etag="JT0HQfLqYwQ8fNQxzki-" version="24.5.3" type="device">
  <diagram name="Page-1" id="zHz_8NXOYfcbP3UnE9Le">
    <mxGraphModel dx="1050" dy="621" grid="1" gridSize="10" guides="1" tooltips="1" connect="1" arrows="1" fold="1" page="1" pageScale="1" pageWidth="900" pageHeight="1600" math="0" shadow="0">
      <root>
        <mxCell id="0" />
        <mxCell id="1" parent="0" />
        <mxCell id="LXe8adicvfzDVt-FRFtS-1" value="&lt;font style=&quot;font-size: 14px;&quot;&gt;Z-1&lt;/font&gt;" style="rounded=0;whiteSpace=wrap;html=1;fontSize=14;fillColor=#fff2cc;strokeColor=#d6b656;" parent="1" vertex="1">
          <mxGeometry x="90" y="170" width="70" height="50" as="geometry" />
        </mxCell>
        <mxCell id="LXe8adicvfzDVt-FRFtS-3" value="" style="endArrow=none;html=1;rounded=0;entryX=0.5;entryY=1;entryDx=0;entryDy=0;exitX=0.75;exitY=1;exitDx=0;exitDy=0;fontSize=14;fillColor=#e1d5e7;strokeColor=#9673a6;strokeWidth=4;" parent="1" source="LXe8adicvfzDVt-FRFtS-2" target="LXe8adicvfzDVt-FRFtS-1" edge="1">
          <mxGeometry width="50" height="50" relative="1" as="geometry">
            <mxPoint x="310" y="350" as="sourcePoint" />
            <mxPoint x="360" y="300" as="targetPoint" />
          </mxGeometry>
        </mxCell>
        <mxCell id="LXe8adicvfzDVt-FRFtS-4" value="" style="endArrow=none;html=1;rounded=0;entryX=0.25;entryY=1;entryDx=0;entryDy=0;exitX=0;exitY=0.5;exitDx=0;exitDy=0;fontSize=14;fillColor=#e1d5e7;strokeColor=#9673a6;strokeWidth=4;" parent="1" source="LXe8adicvfzDVt-FRFtS-7" target="LXe8adicvfzDVt-FRFtS-2" edge="1">
          <mxGeometry width="50" height="50" relative="1" as="geometry">
            <mxPoint x="250" y="220" as="sourcePoint" />
            <mxPoint x="360" y="300" as="targetPoint" />
            <Array as="points">
              <mxPoint x="190" y="220" />
            </Array>
          </mxGeometry>
        </mxCell>
        <mxCell id="LXe8adicvfzDVt-FRFtS-5" value="" style="endArrow=none;html=1;rounded=0;entryX=0;entryY=0.5;entryDx=0;entryDy=0;exitX=0;exitY=0.5;exitDx=0;exitDy=0;fontSize=14;" parent="1" source="LXe8adicvfzDVt-FRFtS-6" target="LXe8adicvfzDVt-FRFtS-2" edge="1">
          <mxGeometry width="50" height="50" relative="1" as="geometry">
            <mxPoint x="270" y="300" as="sourcePoint" />
            <mxPoint x="390" y="290" as="targetPoint" />
          </mxGeometry>
        </mxCell>
        <mxCell id="LXe8adicvfzDVt-FRFtS-6" value="i == 0" style="text;html=1;align=center;verticalAlign=middle;whiteSpace=wrap;rounded=0;fontSize=14;" parent="1" vertex="1">
          <mxGeometry x="270" y="285" width="40" height="30" as="geometry" />
        </mxCell>
        <mxCell id="LXe8adicvfzDVt-FRFtS-7" value="si_reg" style="text;html=1;align=center;verticalAlign=middle;whiteSpace=wrap;rounded=0;fontSize=14;" parent="1" vertex="1">
          <mxGeometry x="250" y="205" width="60" height="30" as="geometry" />
        </mxCell>
        <mxCell id="1RDQGQkrp3twc3ykD7WI-2" value="" style="group;fontSize=14;" parent="1" vertex="1" connectable="0">
          <mxGeometry x="90" y="280" width="135" height="40" as="geometry" />
        </mxCell>
        <mxCell id="LXe8adicvfzDVt-FRFtS-2" value="" style="shape=trapezoid;perimeter=trapezoidPerimeter;whiteSpace=wrap;html=1;fixedSize=1;rotation=-180;fontSize=14;fillColor=#dae8fc;strokeColor=#6c8ebf;" parent="1RDQGQkrp3twc3ykD7WI-2" vertex="1">
          <mxGeometry width="135" height="40" as="geometry" />
        </mxCell>
        <mxCell id="LXe8adicvfzDVt-FRFtS-8" value="0" style="text;html=1;align=center;verticalAlign=middle;whiteSpace=wrap;rounded=0;fontSize=14;" parent="1RDQGQkrp3twc3ykD7WI-2" vertex="1">
          <mxGeometry x="90" y="5" width="20" height="30" as="geometry" />
        </mxCell>
        <mxCell id="LXe8adicvfzDVt-FRFtS-9" value="1" style="text;html=1;align=center;verticalAlign=middle;whiteSpace=wrap;rounded=0;fontSize=14;" parent="1RDQGQkrp3twc3ykD7WI-2" vertex="1">
          <mxGeometry x="25" y="5" width="20" height="30" as="geometry" />
        </mxCell>
        <mxCell id="1RDQGQkrp3twc3ykD7WI-8" value="" style="endArrow=none;html=1;rounded=0;entryX=0.5;entryY=0;entryDx=0;entryDy=0;exitX=0.5;exitY=0;exitDx=0;exitDy=0;fontSize=14;fillColor=#e1d5e7;strokeColor=#9673a6;strokeWidth=4;" parent="1" source="1RDQGQkrp3twc3ykD7WI-9" target="LXe8adicvfzDVt-FRFtS-2" edge="1">
          <mxGeometry width="50" height="50" relative="1" as="geometry">
            <mxPoint x="310" y="450" as="sourcePoint" />
            <mxPoint x="360" y="400" as="targetPoint" />
          </mxGeometry>
        </mxCell>
        <mxCell id="1RDQGQkrp3twc3ykD7WI-9" value="is neg" style="ellipse;whiteSpace=wrap;html=1;aspect=fixed;fontSize=14;fillColor=#ffe6cc;strokeColor=#d79b00;" parent="1" vertex="1">
          <mxGeometry x="132.5" y="350" width="50" height="50" as="geometry" />
        </mxCell>
        <mxCell id="1RDQGQkrp3twc3ykD7WI-11" value="" style="endArrow=none;html=1;rounded=0;entryX=0.25;entryY=1;entryDx=0;entryDy=0;exitX=1;exitY=0.5;exitDx=0;exitDy=0;fontSize=14;fillColor=#e1d5e7;strokeColor=#9673a6;strokeWidth=4;" parent="1" source="1RDQGQkrp3twc3ykD7WI-13" target="1RDQGQkrp3twc3ykD7WI-4" edge="1">
          <mxGeometry width="50" height="50" relative="1" as="geometry">
            <mxPoint x="90" y="450" as="sourcePoint" />
            <mxPoint x="310" y="390" as="targetPoint" />
          </mxGeometry>
        </mxCell>
        <mxCell id="1RDQGQkrp3twc3ykD7WI-12" value="" style="endArrow=none;html=1;rounded=0;entryX=0.75;entryY=1;entryDx=0;entryDy=0;exitX=1;exitY=0.5;exitDx=0;exitDy=0;fontSize=14;fillColor=#e1d5e7;strokeColor=#9673a6;strokeWidth=4;" parent="1" source="1RDQGQkrp3twc3ykD7WI-14" target="1RDQGQkrp3twc3ykD7WI-4" edge="1">
          <mxGeometry width="50" height="50" relative="1" as="geometry">
            <mxPoint x="90" y="510" as="sourcePoint" />
            <mxPoint x="149" y="461" as="targetPoint" />
          </mxGeometry>
        </mxCell>
        <mxCell id="1RDQGQkrp3twc3ykD7WI-13" value="2 S(i-1)" style="text;html=1;align=center;verticalAlign=middle;whiteSpace=wrap;rounded=0;fontSize=14;" parent="1" vertex="1">
          <mxGeometry x="50" y="435" width="51.48" height="30" as="geometry" />
        </mxCell>
        <mxCell id="1RDQGQkrp3twc3ykD7WI-14" value="s(i)" style="text;html=1;align=center;verticalAlign=middle;whiteSpace=wrap;rounded=0;fontSize=14;" parent="1" vertex="1">
          <mxGeometry x="70" y="493" width="31.48" height="30" as="geometry" />
        </mxCell>
        <mxCell id="1RDQGQkrp3twc3ykD7WI-4" value="" style="shape=trapezoid;perimeter=trapezoidPerimeter;whiteSpace=wrap;html=1;fixedSize=1;rotation=-270;fontSize=14;fillColor=#dae8fc;strokeColor=#6c8ebf;" parent="1" vertex="1">
          <mxGeometry x="100.48148148148147" y="459" width="115" height="40" as="geometry" />
        </mxCell>
        <mxCell id="1RDQGQkrp3twc3ykD7WI-5" value="0" style="text;html=1;align=center;verticalAlign=middle;whiteSpace=wrap;rounded=0;rotation=-90;fontSize=14;" parent="1" vertex="1">
          <mxGeometry x="148.97703703703712" y="493" width="17.037037037037038" height="30" as="geometry" />
        </mxCell>
        <mxCell id="1RDQGQkrp3twc3ykD7WI-6" value="1" style="text;html=1;align=center;verticalAlign=middle;whiteSpace=wrap;rounded=0;rotation=-90;fontSize=14;" parent="1" vertex="1">
          <mxGeometry x="148.97703703703706" y="435" width="17.037037037037038" height="30" as="geometry" />
        </mxCell>
        <mxCell id="1RDQGQkrp3twc3ykD7WI-15" value="" style="endArrow=none;html=1;rounded=0;exitX=0.5;exitY=0;exitDx=0;exitDy=0;entryX=0;entryY=0.5;entryDx=0;entryDy=0;fontSize=14;fillColor=#e1d5e7;strokeColor=#9673a6;strokeWidth=4;" parent="1" source="1RDQGQkrp3twc3ykD7WI-4" target="1RDQGQkrp3twc3ykD7WI-17" edge="1">
          <mxGeometry width="50" height="50" relative="1" as="geometry">
            <mxPoint x="260" y="440" as="sourcePoint" />
            <mxPoint x="310" y="480" as="targetPoint" />
          </mxGeometry>
        </mxCell>
        <mxCell id="1RDQGQkrp3twc3ykD7WI-16" value="restored value" style="edgeLabel;html=1;align=center;verticalAlign=middle;resizable=0;points=[];fontSize=14;" parent="1RDQGQkrp3twc3ykD7WI-15" vertex="1" connectable="0">
          <mxGeometry x="0.4166" y="2" relative="1" as="geometry">
            <mxPoint x="-21" y="2" as="offset" />
          </mxGeometry>
        </mxCell>
        <mxCell id="1RDQGQkrp3twc3ykD7WI-17" value="&amp;lt;&amp;lt;1" style="ellipse;whiteSpace=wrap;html=1;aspect=fixed;fontSize=14;fillColor=#d5e8d4;strokeColor=#82b366;" parent="1" vertex="1">
          <mxGeometry x="300" y="465" width="29" height="29" as="geometry" />
        </mxCell>
        <mxCell id="1RDQGQkrp3twc3ykD7WI-18" value="" style="endArrow=none;html=1;rounded=0;exitX=1;exitY=0.5;exitDx=0;exitDy=0;entryX=0;entryY=0.5;entryDx=0;entryDy=0;fontSize=14;fillColor=#e1d5e7;strokeColor=#9673a6;strokeWidth=4;" parent="1" source="1RDQGQkrp3twc3ykD7WI-17" target="1RDQGQkrp3twc3ykD7WI-19" edge="1">
          <mxGeometry width="50" height="50" relative="1" as="geometry">
            <mxPoint x="260" y="440" as="sourcePoint" />
            <mxPoint x="360" y="480" as="targetPoint" />
          </mxGeometry>
        </mxCell>
        <mxCell id="1RDQGQkrp3twc3ykD7WI-19" value="-" style="ellipse;whiteSpace=wrap;html=1;aspect=fixed;fontSize=14;fillColor=#d5e8d4;strokeColor=#82b366;" parent="1" vertex="1">
          <mxGeometry x="350" y="462.5" width="33" height="33" as="geometry" />
        </mxCell>
        <mxCell id="1RDQGQkrp3twc3ykD7WI-21" value="" style="shape=xor;whiteSpace=wrap;html=1;rotation=90;fontSize=14;fillColor=#f8cecc;strokeColor=#b85450;" parent="1" vertex="1">
          <mxGeometry x="355" y="400" width="23" height="50" as="geometry" />
        </mxCell>
        <mxCell id="1RDQGQkrp3twc3ykD7WI-22" value="" style="endArrow=none;html=1;rounded=0;entryX=0.5;entryY=0;entryDx=0;entryDy=0;exitX=1;exitY=0.5;exitDx=0;exitDy=0;exitPerimeter=0;fontSize=14;" parent="1" source="1RDQGQkrp3twc3ykD7WI-21" target="1RDQGQkrp3twc3ykD7WI-19" edge="1">
          <mxGeometry width="50" height="50" relative="1" as="geometry">
            <mxPoint x="260" y="440" as="sourcePoint" />
            <mxPoint x="310" y="390" as="targetPoint" />
          </mxGeometry>
        </mxCell>
        <mxCell id="1RDQGQkrp3twc3ykD7WI-23" value="" style="endArrow=none;html=1;rounded=0;entryX=0.175;entryY=0.75;entryDx=0;entryDy=0;entryPerimeter=0;exitX=1;exitY=0.5;exitDx=0;exitDy=0;fontSize=14;fillColor=#e1d5e7;strokeColor=#9673a6;strokeWidth=4;" parent="1" source="1RDQGQkrp3twc3ykD7WI-26" target="1RDQGQkrp3twc3ykD7WI-21" edge="1">
          <mxGeometry width="50" height="50" relative="1" as="geometry">
            <mxPoint x="320" y="390" as="sourcePoint" />
            <mxPoint x="310" y="390" as="targetPoint" />
            <Array as="points">
              <mxPoint x="354" y="390" />
            </Array>
          </mxGeometry>
        </mxCell>
        <mxCell id="1RDQGQkrp3twc3ykD7WI-24" value="" style="endArrow=none;html=1;rounded=0;entryX=0.175;entryY=0.25;entryDx=0;entryDy=0;entryPerimeter=0;exitX=0.022;exitY=0.443;exitDx=0;exitDy=0;exitPerimeter=0;fontSize=14;fillColor=#e1d5e7;strokeColor=#9673a6;strokeWidth=4;" parent="1" source="1RDQGQkrp3twc3ykD7WI-25" target="1RDQGQkrp3twc3ykD7WI-21" edge="1">
          <mxGeometry width="50" height="50" relative="1" as="geometry">
            <mxPoint x="410" y="390" as="sourcePoint" />
            <mxPoint x="310" y="390" as="targetPoint" />
            <Array as="points">
              <mxPoint x="380" y="390" />
            </Array>
          </mxGeometry>
        </mxCell>
        <mxCell id="1RDQGQkrp3twc3ykD7WI-25" value="&lt;span style=&quot;font-size: 12px;&quot;&gt;next_bit_mask&lt;/span&gt;&amp;gt;&amp;gt;1" style="text;html=1;align=center;verticalAlign=middle;whiteSpace=wrap;rounded=0;fontSize=14;" parent="1" vertex="1">
          <mxGeometry x="410" y="377" width="120" height="30" as="geometry" />
        </mxCell>
        <mxCell id="1RDQGQkrp3twc3ykD7WI-26" value="q next #0" style="text;html=1;align=center;verticalAlign=middle;whiteSpace=wrap;rounded=0;fontSize=14;" parent="1" vertex="1">
          <mxGeometry x="250" y="375" width="66" height="30" as="geometry" />
        </mxCell>
        <mxCell id="1RDQGQkrp3twc3ykD7WI-28" value="" style="endArrow=none;html=1;rounded=0;exitX=1;exitY=0.5;exitDx=0;exitDy=0;entryX=0;entryY=0.5;entryDx=0;entryDy=0;fontSize=14;fillColor=#e1d5e7;strokeColor=#9673a6;strokeWidth=4;" parent="1" source="1RDQGQkrp3twc3ykD7WI-19" target="1RDQGQkrp3twc3ykD7WI-30" edge="1">
          <mxGeometry width="50" height="50" relative="1" as="geometry">
            <mxPoint x="400" y="460" as="sourcePoint" />
            <mxPoint x="450" y="479" as="targetPoint" />
          </mxGeometry>
        </mxCell>
        <mxCell id="1RDQGQkrp3twc3ykD7WI-29" value="s(i+1)" style="edgeLabel;html=1;align=center;verticalAlign=middle;resizable=0;points=[];fontSize=14;" parent="1RDQGQkrp3twc3ykD7WI-28" vertex="1" connectable="0">
          <mxGeometry x="-0.2194" y="1" relative="1" as="geometry">
            <mxPoint as="offset" />
          </mxGeometry>
        </mxCell>
        <mxCell id="1RDQGQkrp3twc3ykD7WI-30" value="S register" style="rounded=0;whiteSpace=wrap;html=1;fontSize=14;fillColor=#fff2cc;strokeColor=#d6b656;" parent="1" vertex="1">
          <mxGeometry x="450" y="448.5" width="100" height="60" as="geometry" />
        </mxCell>
        <mxCell id="1RDQGQkrp3twc3ykD7WI-31" value="" style="endArrow=none;html=1;rounded=0;entryX=0;entryY=0.5;entryDx=0;entryDy=0;exitX=0.5;exitY=1;exitDx=0;exitDy=0;fontSize=14;" parent="1" source="1RDQGQkrp3twc3ykD7WI-9" target="1RDQGQkrp3twc3ykD7WI-4" edge="1">
          <mxGeometry width="50" height="50" relative="1" as="geometry">
            <mxPoint x="168" y="360" as="sourcePoint" />
            <mxPoint x="168" y="330" as="targetPoint" />
          </mxGeometry>
        </mxCell>
        <mxCell id="61FaxqFOr42YoceyBErl-1" value="q register" style="rounded=0;whiteSpace=wrap;html=1;fillColor=#fff2cc;strokeColor=#d6b656;" parent="1" vertex="1">
          <mxGeometry x="132.75" y="760" width="127.5" height="55" as="geometry" />
        </mxCell>
        <mxCell id="61FaxqFOr42YoceyBErl-2" value="" style="shape=or;whiteSpace=wrap;html=1;rotation=90;fillColor=#f8cecc;strokeColor=#b85450;" parent="1" vertex="1">
          <mxGeometry x="221.5" y="630" width="27.5" height="50" as="geometry" />
        </mxCell>
        <mxCell id="61FaxqFOr42YoceyBErl-4" style="edgeStyle=orthogonalEdgeStyle;rounded=0;orthogonalLoop=1;jettySize=auto;html=1;entryX=0.5;entryY=0;entryDx=0;entryDy=0;fillColor=#dae8fc;strokeColor=#6c8ebf;strokeWidth=3;" parent="1" source="61FaxqFOr42YoceyBErl-3" target="61FaxqFOr42YoceyBErl-1" edge="1">
          <mxGeometry relative="1" as="geometry" />
        </mxCell>
        <mxCell id="61FaxqFOr42YoceyBErl-3" value="" style="shape=xor;whiteSpace=wrap;html=1;rotation=90;fillColor=#f8cecc;strokeColor=#b85450;" parent="1" vertex="1">
          <mxGeometry x="179" y="675.5" width="35" height="80" as="geometry" />
        </mxCell>
        <mxCell id="61FaxqFOr42YoceyBErl-5" value="q" style="text;html=1;align=center;verticalAlign=middle;whiteSpace=wrap;rounded=0;" parent="1" vertex="1">
          <mxGeometry x="116.5" y="625.5" width="20" height="30" as="geometry" />
        </mxCell>
        <mxCell id="61FaxqFOr42YoceyBErl-6" style="edgeStyle=orthogonalEdgeStyle;rounded=0;orthogonalLoop=1;jettySize=auto;html=1;entryX=0.175;entryY=0.75;entryDx=0;entryDy=0;entryPerimeter=0;exitX=0.5;exitY=1;exitDx=0;exitDy=0;fillColor=#dae8fc;strokeColor=#6c8ebf;strokeWidth=3;" parent="1" source="61FaxqFOr42YoceyBErl-5" target="61FaxqFOr42YoceyBErl-3" edge="1">
          <mxGeometry relative="1" as="geometry">
            <mxPoint x="116.5" y="665.5" as="sourcePoint" />
          </mxGeometry>
        </mxCell>
        <mxCell id="61FaxqFOr42YoceyBErl-8" style="edgeStyle=orthogonalEdgeStyle;rounded=0;orthogonalLoop=1;jettySize=auto;html=1;entryX=0.175;entryY=0.25;entryDx=0;entryDy=0;entryPerimeter=0;fillColor=#dae8fc;strokeColor=#6c8ebf;strokeWidth=3;" parent="1" source="61FaxqFOr42YoceyBErl-2" target="61FaxqFOr42YoceyBErl-3" edge="1">
          <mxGeometry relative="1" as="geometry" />
        </mxCell>
        <mxCell id="61FaxqFOr42YoceyBErl-9" value="&lt;span style=&quot;color: rgb(0, 0, 0); font-family: Helvetica; font-size: 12px; font-style: normal; font-variant-ligatures: normal; font-variant-caps: normal; font-weight: 400; letter-spacing: normal; orphans: 2; text-align: center; text-indent: 0px; text-transform: none; widows: 2; word-spacing: 0px; -webkit-text-stroke-width: 0px; white-space: normal; background-color: rgb(251, 251, 251); text-decoration-thickness: initial; text-decoration-style: initial; text-decoration-color: initial; display: inline !important; float: none;&quot;&gt;next_bit_mask&lt;/span&gt;" style="text;html=1;align=center;verticalAlign=middle;whiteSpace=wrap;rounded=0;" parent="1" vertex="1">
          <mxGeometry x="106.5" y="560" width="80" height="30" as="geometry" />
        </mxCell>
        <mxCell id="61FaxqFOr42YoceyBErl-10" style="edgeStyle=orthogonalEdgeStyle;rounded=0;orthogonalLoop=1;jettySize=auto;html=1;entryX=0;entryY=0.75;entryDx=0;entryDy=0;entryPerimeter=0;fillColor=#dae8fc;strokeColor=#6c8ebf;strokeWidth=3;" parent="1" source="61FaxqFOr42YoceyBErl-9" target="61FaxqFOr42YoceyBErl-2" edge="1">
          <mxGeometry relative="1" as="geometry">
            <Array as="points">
              <mxPoint x="146.5" y="605" />
              <mxPoint x="222.5" y="605" />
            </Array>
          </mxGeometry>
        </mxCell>
        <mxCell id="61FaxqFOr42YoceyBErl-11" value="&lt;span style=&quot;color: rgb(0, 0, 0); font-family: Helvetica; font-size: 12px; font-style: normal; font-variant-ligatures: normal; font-variant-caps: normal; font-weight: 400; letter-spacing: normal; orphans: 2; text-align: center; text-indent: 0px; text-transform: none; widows: 2; word-spacing: 0px; -webkit-text-stroke-width: 0px; white-space: normal; background-color: rgb(251, 251, 251); text-decoration-thickness: initial; text-decoration-style: initial; text-decoration-color: initial; display: inline !important; float: none;&quot;&gt;is_neg&lt;/span&gt;" style="text;html=1;align=center;verticalAlign=middle;whiteSpace=wrap;rounded=0;" parent="1" vertex="1">
          <mxGeometry x="249" y="560" width="80" height="30" as="geometry" />
        </mxCell>
        <mxCell id="61FaxqFOr42YoceyBErl-12" style="edgeStyle=orthogonalEdgeStyle;rounded=0;orthogonalLoop=1;jettySize=auto;html=1;entryX=0;entryY=0.25;entryDx=0;entryDy=0;entryPerimeter=0;fillColor=#dae8fc;strokeColor=#6c8ebf;strokeWidth=3;" parent="1" source="61FaxqFOr42YoceyBErl-11" target="61FaxqFOr42YoceyBErl-2" edge="1">
          <mxGeometry relative="1" as="geometry" />
        </mxCell>
        <mxCell id="61FaxqFOr42YoceyBErl-16" style="edgeStyle=orthogonalEdgeStyle;rounded=0;orthogonalLoop=1;jettySize=auto;html=1;entryX=0.5;entryY=0;entryDx=0;entryDy=0;fillColor=#d5e8d4;strokeColor=#82b366;strokeWidth=3;" parent="1" source="61FaxqFOr42YoceyBErl-13" target="61FaxqFOr42YoceyBErl-15" edge="1">
          <mxGeometry relative="1" as="geometry" />
        </mxCell>
        <mxCell id="61FaxqFOr42YoceyBErl-13" value="shift register" style="rounded=0;whiteSpace=wrap;html=1;fillColor=#fff2cc;strokeColor=#d6b656;" parent="1" vertex="1">
          <mxGeometry x="370" y="560" width="120" height="60" as="geometry" />
        </mxCell>
        <mxCell id="61FaxqFOr42YoceyBErl-15" value="&lt;span style=&quot;color: rgb(0, 0, 0); font-family: Helvetica; font-size: 12px; font-style: normal; font-variant-ligatures: normal; font-variant-caps: normal; font-weight: 400; letter-spacing: normal; orphans: 2; text-align: center; text-indent: 0px; text-transform: none; widows: 2; word-spacing: 0px; -webkit-text-stroke-width: 0px; white-space: normal; background-color: rgb(251, 251, 251); text-decoration-thickness: initial; text-decoration-style: initial; text-decoration-color: initial; display: inline !important; float: none;&quot;&gt;next_bit_mask&lt;/span&gt;" style="text;html=1;align=center;verticalAlign=middle;whiteSpace=wrap;rounded=0;" parent="1" vertex="1">
          <mxGeometry x="390" y="660" width="80" height="25" as="geometry" />
        </mxCell>
        <mxCell id="61FaxqFOr42YoceyBErl-31" value="" style="group" parent="1" vertex="1" connectable="0">
          <mxGeometry x="350" y="170" width="150" height="130" as="geometry" />
        </mxCell>
        <mxCell id="61FaxqFOr42YoceyBErl-27" value="" style="rounded=0;whiteSpace=wrap;html=1;" parent="61FaxqFOr42YoceyBErl-31" vertex="1">
          <mxGeometry width="150" height="130" as="geometry" />
        </mxCell>
        <mxCell id="61FaxqFOr42YoceyBErl-26" value="" style="group" parent="61FaxqFOr42YoceyBErl-31" vertex="1" connectable="0">
          <mxGeometry x="20" y="40" width="110" height="60" as="geometry" />
        </mxCell>
        <mxCell id="61FaxqFOr42YoceyBErl-18" value="" style="endArrow=none;html=1;rounded=0;fillColor=#e1d5e7;strokeColor=#9673a6;strokeWidth=3;" parent="61FaxqFOr42YoceyBErl-26" edge="1">
          <mxGeometry width="50" height="50" relative="1" as="geometry">
            <mxPoint y="60" as="sourcePoint" />
            <mxPoint x="110" y="60" as="targetPoint" />
          </mxGeometry>
        </mxCell>
        <mxCell id="61FaxqFOr42YoceyBErl-19" value="size+1 wide bus" style="edgeLabel;html=1;align=center;verticalAlign=middle;resizable=0;points=[];" parent="61FaxqFOr42YoceyBErl-18" vertex="1" connectable="0">
          <mxGeometry x="-0.0431" y="-2" relative="1" as="geometry">
            <mxPoint y="-2" as="offset" />
          </mxGeometry>
        </mxCell>
        <mxCell id="61FaxqFOr42YoceyBErl-20" value="" style="endArrow=none;html=1;rounded=0;" parent="61FaxqFOr42YoceyBErl-26" edge="1">
          <mxGeometry width="50" height="50" relative="1" as="geometry">
            <mxPoint as="sourcePoint" />
            <mxPoint x="110" as="targetPoint" />
          </mxGeometry>
        </mxCell>
        <mxCell id="61FaxqFOr42YoceyBErl-21" value="1 bit wide bus" style="edgeLabel;html=1;align=center;verticalAlign=middle;resizable=0;points=[];" parent="61FaxqFOr42YoceyBErl-20" vertex="1" connectable="0">
          <mxGeometry x="-0.0431" y="-2" relative="1" as="geometry">
            <mxPoint y="-2" as="offset" />
          </mxGeometry>
        </mxCell>
        <mxCell id="61FaxqFOr42YoceyBErl-22" value="" style="endArrow=none;html=1;rounded=0;strokeWidth=3;fillColor=#dae8fc;strokeColor=#6c8ebf;" parent="61FaxqFOr42YoceyBErl-26" edge="1">
          <mxGeometry width="50" height="50" relative="1" as="geometry">
            <mxPoint y="40" as="sourcePoint" />
            <mxPoint x="110" y="40" as="targetPoint" />
          </mxGeometry>
        </mxCell>
        <mxCell id="61FaxqFOr42YoceyBErl-23" value="size-1 wide bus" style="edgeLabel;html=1;align=center;verticalAlign=middle;resizable=0;points=[];" parent="61FaxqFOr42YoceyBErl-22" vertex="1" connectable="0">
          <mxGeometry x="-0.0431" y="-2" relative="1" as="geometry">
            <mxPoint y="-2" as="offset" />
          </mxGeometry>
        </mxCell>
        <mxCell id="61FaxqFOr42YoceyBErl-24" value="" style="endArrow=none;html=1;rounded=0;strokeWidth=3;fillColor=#d5e8d4;strokeColor=#82b366;" parent="61FaxqFOr42YoceyBErl-26" edge="1">
          <mxGeometry width="50" height="50" relative="1" as="geometry">
            <mxPoint y="20" as="sourcePoint" />
            <mxPoint x="110" y="20" as="targetPoint" />
          </mxGeometry>
        </mxCell>
        <mxCell id="61FaxqFOr42YoceyBErl-25" value="size-2 wide bus" style="edgeLabel;html=1;align=center;verticalAlign=middle;resizable=0;points=[];" parent="61FaxqFOr42YoceyBErl-24" vertex="1" connectable="0">
          <mxGeometry x="-0.0431" y="-2" relative="1" as="geometry">
            <mxPoint y="-2" as="offset" />
          </mxGeometry>
        </mxCell>
        <mxCell id="61FaxqFOr42YoceyBErl-30" value="Bus width legend" style="text;html=1;align=center;verticalAlign=middle;whiteSpace=wrap;rounded=0;" parent="61FaxqFOr42YoceyBErl-31" vertex="1">
          <mxGeometry x="20" width="110" height="30" as="geometry" />
        </mxCell>
      </root>
    </mxGraphModel>
  </diagram>
</mxfile>
